Coordinates
version=1
nRows=17
nColumns=38
inDegrees=no

Units are S.I. units (second, meters, Newtons, ...)
If the header above contains a line with 'inDegrees', this indicates whether rotational values are in degrees (yes) or radians (no).

endheader
time	pelvis_tilt	pelvis_list	pelvis_rotation	pelvis_tx	pelvis_ty	pelvis_tz	hip_flexion_r	hip_adduction_r	hip_rotation_r	knee_angle_r	ankle_angle_r	subtalar_angle_r	mtp_angle_r	hip_flexion_l	hip_adduction_l	hip_rotation_l	knee_angle_l	ankle_angle_l	subtalar_angle_l	mtp_angle_l	lumbar_extension	lumbar_bending	lumbar_rotation	arm_flex_r	arm_add_r	arm_rot_r	elbow_flex_r	pro_sup_r	wrist_flex_r	wrist_dev_r	arm_flex_l	arm_add_l	arm_rot_l	elbow_flex_l	pro_sup_l	wrist_flex_l	wrist_dev_l
2.15	-0.242228	1.30995	-1.25087	0.777739	-0.48675	0.955601	-0.278209	0.122166	-0.224535	0.0829099	-0.217405	0	0	0.0414527	-0.318015	-0.314516	1.32146	-0.150477	0	0	-0.415333	0.0641145	-0.192747	-0.11352	-0.398888	0.517218	0.767673	0.929022	0	0	-0.32673	-0.355481	-0.123817	1.05811	1.5708	0	0
2.16	-0.226503	1.31155	-1.27428	0.776948	-0.496261	0.956044	-0.292231	0.1174	-0.223539	0.0786693	-0.207848	0	0	0.0592812	-0.311735	-0.324554	1.30088	-0.142067	0	0	-0.415756	0.0559168	-0.186401	-0.113538	-0.39683	0.51518	0.767169	0.933007	0	0	-0.329648	-0.355677	-0.121549	1.05485	1.5708	0	0
2.17	-0.150658	1.35869	-1.35999	0.775021	-0.5047	0.951771	-0.222265	0.0850158	-0.215948	0.126257	-0.188508	0	0	0.127996	-0.216415	-0.220749	1.26866	-0.0954911	0	0	-0.371888	0.0187525	-0.183907	-0.114443	-0.383547	0.511825	0.753971	0.937651	0	0	-0.334811	-0.362461	-0.118014	1.04915	1.5708	0	0
2.18	-0.179785	1.31455	-1.32956	0.775815	-0.514186	0.956862	-0.324435	0.105891	-0.219158	0.0570896	-0.217599	0	0	0.0949615	-0.256569	-0.273803	1.2327	-0.117048	0	0	-0.421545	0.0378515	-0.177756	-0.115821	-0.388131	0.496562	0.768449	0.947226	0	0	-0.331148	-0.359471	-0.116284	1.05044	1.5708	0	0
2.19	-0.170388	1.31255	-1.34635	0.775164	-0.524134	0.956848	-0.343512	0.103415	-0.216244	0.0491871	-0.209284	0	0	0.103259	-0.263395	-0.308336	1.19953	-0.120168	0	0	-0.424549	0.0319874	-0.170834	-0.120665	-0.384753	0.482296	0.771613	0.964454	0	0	-0.336343	-0.358737	-0.117732	1.05169	1.5708	0	0
2.2	-0.159527	1.30938	-1.36355	0.774621	-0.53378	0.956797	-0.365511	0.101111	-0.208057	0.0360763	-0.210552	0	0	0.108848	-0.263505	-0.33238	1.15943	-0.125216	0	0	-0.429193	0.0265111	-0.16504	-0.120178	-0.388732	0.489402	0.777417	0.953316	0	0	-0.34079	-0.358392	-0.119542	1.05307	1.5708	0	0
2.21	-0.152132	1.30651	-1.37669	0.774216	-0.543454	0.956497	-0.38628	0.0993798	-0.201378	0.0247637	-0.210002	0	0	0.113094	-0.267308	-0.363994	1.11654	-0.136189	0	0	-0.433204	0.0219227	-0.159455	-0.119631	-0.393011	0.496873	0.782904	0.942573	0	0	-0.345329	-0.358244	-0.121175	1.05454	1.5708	0	0
2.22	-0.147751	1.30329	-1.38622	0.77396	-0.553166	0.956053	-0.404533	0.0976783	-0.201258	0.0200943	-0.206712	0	0	0.115056	-0.27391	-0.402815	1.07093	-0.152416	0	0	-0.43756	0.0184209	-0.154183	-0.119407	-0.396967	0.502883	0.788086	0.931176	0	0	-0.350128	-0.357782	-0.123422	1.05683	1.5708	0	0
2.23	-0.14229	1.30307	-1.39477	0.773829	-0.56269	0.955343	-0.423487	0.0968008	-0.191794	0.00500229	-0.206929	0	0	0.121524	-0.268481	-0.420395	1.01971	-0.166086	0	0	-0.44091	0.014352	-0.146137	-0.137115	-0.377911	0.437395	0.789546	0.998938	0	0	-0.350192	-0.359342	-0.120771	1.05869	1.5708	0	0
2.24	-0.103531	1.33679	-1.44702	0.772414	-0.572332	0.950113	-0.357638	0.077179	-0.19579	0.0707731	-0.160502	0	0	0.163331	-0.248583	-0.442808	0.977903	-0.167144	0	0	-0.402511	-0.00812835	-0.144138	-0.10986	-0.408822	0.553069	0.789062	0.865877	0	0	-0.364816	-0.359128	-0.130176	1.05953	1.56856	0	0
2.25	-0.136472	1.30318	-1.40378	0.77413	-0.581797	0.953487	-0.447871	0.0940838	-0.200893	0.00627595	-0.178221	0	0	0.131086	-0.257177	-0.460732	0.916203	-0.181547	0	0	-0.44089	0.00933451	-0.148012	-0.106914	-0.409678	0.543998	0.792112	0.871969	0	0	-0.3612	-0.357403	-0.129881	1.05875	1.5623	0	0
2.26	-0.100159	1.33834	-1.45284	0.772886	-0.591376	0.948085	-0.381586	0.0757535	-0.199512	0.0673862	-0.141284	0	0	0.171223	-0.236916	-0.485208	0.873243	-0.176656	0	0	-0.404198	-0.0130463	-0.13996	-0.110417	-0.404106	0.540126	0.787038	0.877116	0	0	-0.369674	-0.358876	-0.133178	1.05948	1.55345	0	0
2.27	-0.103053	1.34102	-1.45019	0.773284	-0.600911	0.946763	-0.39017	0.0758916	-0.202042	0.0675789	-0.136328	0	0	0.175805	-0.230118	-0.504437	0.820781	-0.17347	0	0	-0.402666	-0.0142502	-0.138788	-0.10912	-0.402297	0.538257	0.78409	0.880308	0	0	-0.371407	-0.358276	-0.135122	1.05736	1.54972	0	0
2.28	-0.104363	1.34799	-1.44584	0.77372	-0.609935	0.945273	-0.392579	0.0765268	-0.20349	0.0691541	-0.13047	0	0	0.186126	-0.198341	-0.461859	0.745122	-0.160493	0	0	-0.397824	-0.0157531	-0.14005	-0.106241	-0.396427	0.533841	0.775905	0.884653	0	0	-0.370384	-0.359468	-0.135613	1.05226	1.54667	0	0
2.29	-0.116735	1.34804	-1.43503	0.774401	-0.619981	0.943632	-0.404026	0.0782069	-0.207074	0.0698427	-0.127065	0	0	0.184192	-0.21257	-0.529895	0.704004	-0.170537	0	0	-0.398126	-0.0143744	-0.13695	-0.109063	-0.396	0.524655	0.777546	0.892821	0	0	-0.373494	-0.357901	-0.138177	1.05175	1.54474	0	0
2.3	-0.128113	1.32318	-1.40482	0.776495	-0.628379	0.946887	-0.482458	0.0916218	-0.212474	0.00955958	-0.152601	0	0	0.128121	-0.157582	-0.40794	0.527945	-0.172047	0	0	-0.430119	-0.00229449	-0.151616	-0.0919955	-0.391496	0.537505	0.762948	0.884629	0	0	-0.364282	-0.359648	-0.137708	1.04216	1.54124	0	0
2.31	-0.16893	1.32409	-1.36574	0.777453	-0.639086	0.94386	-0.49503	0.100974	-0.208364	0.00420875	-0.153219	0	0	0.157762	-0.201997	-0.521133	0.581188	-0.171253	0	0	-0.426152	0.00664436	-0.148309	-0.095935	-0.401546	0.542106	0.775824	0.8763	0	0	-0.373361	-0.355937	-0.143298	1.04677	1.54133	0	0
